<svg width="65" height="65" viewBox="0 0 65 65" fill="none" xmlns="http://www.w3.org/2000/svg">
<rect x="4" y="4" width="56" height="56" fill="#F7F3E7"/>
<path fill-rule="evenodd" clip-rule="evenodd" d="M0.5 8.34906C0.5 4.01414 4.01414 0.5 8.34906 0.5H56.6509C60.9859 0.5 64.5 4.01414 64.5 8.34906V56.6509C64.5 60.9859 60.9859 64.5 56.6509 64.5H8.34906C4.01414 64.5 0.5 60.9859 0.5 56.6509V8.34906ZM8.34906 6.53774C7.34869 6.53774 6.53774 7.34869 6.53774 8.34906V56.6509C6.53774 57.6513 7.34869 58.4623 8.34906 58.4623H56.6509C57.6513 58.4623 58.4623 57.6513 58.4623 56.6509V8.34906C58.4623 7.34869 57.6513 6.53774 56.6509 6.53774H8.34906Z" fill="#110D08"/>
<path d="M3.51892 8.34908C3.51892 5.68144 5.68147 3.51889 8.34911 3.51889H32.5V32.5H3.51892V8.34908Z" fill="#FFCA45"/>
<path fill-rule="evenodd" clip-rule="evenodd" d="M0.5 8.34906C0.5 4.01414 4.01414 0.5 8.34906 0.5H35.5189V35.5189H0.5V8.34906ZM8.34906 6.53774C7.34869 6.53774 6.53774 7.34869 6.53774 8.34906V29.4811H29.4811V6.53774H8.34906Z" fill="#110D08"/>
<path d="M32.5 32.5H61.4811V56.6509C61.4811 59.3186 59.3186 61.4811 56.6509 61.4811H32.5V32.5Z" fill="#9698F3"/>
<path fill-rule="evenodd" clip-rule="evenodd" d="M29.4811 29.4811H64.5V56.651C64.5 60.9859 60.9859 64.5 56.651 64.5H29.4811V29.4811ZM35.5189 35.5189V58.4623H56.651C57.6513 58.4623 58.4623 57.6513 58.4623 56.651V35.5189H35.5189Z" fill="#110D08"/>
</svg>
