<svg width="160" height="160" viewBox="0 0 160 160" fill="none" xmlns="http://www.w3.org/2000/svg">
<g style="mix-blend-mode:multiply">
<path d="M70.1997 8.38456C71.951 -2.79485 88.049 -2.79485 89.8004 8.38456V8.38456C91.1322 16.8861 101.916 19.7757 107.32 13.079V13.079C114.427 4.27307 128.368 12.322 124.295 22.8794V22.8794C121.198 30.9078 129.092 38.8023 137.121 35.7049V35.7049C147.678 31.632 155.727 45.5732 146.921 52.6796V52.6796C140.224 58.0838 143.114 68.8678 151.615 70.1997V70.1997C162.795 71.951 162.795 88.049 151.615 89.8004V89.8004C143.114 91.1322 140.224 101.916 146.921 107.32V107.32C155.727 114.427 147.678 128.368 137.121 124.295V124.295C129.092 121.198 121.198 129.092 124.295 137.121V137.121C128.368 147.678 114.427 155.727 107.32 146.921V146.921C101.916 140.224 91.1322 143.114 89.8004 151.615V151.615C88.049 162.795 71.951 162.795 70.1997 151.615V151.615C68.8678 143.114 58.0838 140.224 52.6796 146.921V146.921C45.5732 155.727 31.632 147.678 35.7049 137.121V137.121C38.8023 129.092 30.9078 121.198 22.8794 124.295V124.295C12.322 128.368 4.27307 114.427 13.079 107.32V107.32C19.7757 101.916 16.8861 91.1322 8.38456 89.8004V89.8004C-2.79485 88.049 -2.79485 71.951 8.38456 70.1997V70.1997C16.8861 68.8678 19.7757 58.0838 13.079 52.6796V52.6796C4.27307 45.5732 12.322 31.632 22.8794 35.7049V35.7049C30.9078 38.8023 38.8023 30.9078 35.7049 22.8794V22.8794C31.632 12.322 45.5732 4.27307 52.6796 13.079V13.079C58.0838 19.7757 68.8678 16.8861 70.1997 8.38456V8.38456Z" fill="#FF9277"/>
</g>
</svg>
